<svg xmlns="http://www.w3.org/2000/svg" xmlns:xlink="http://www.w3.org/1999/xlink" width="500" zoomAndPan="magnify" viewBox="0 0 375 374.999991" height="500" preserveAspectRatio="xMidYMid meet" version="1.0"><defs><g/><clipPath id="1a98c3b694"><path d="M 69 37.5 L 306 37.5 L 306 337 L 69 337 Z M 69 37.5 " clip-rule="nonzero"/></clipPath></defs><g clip-path="url(#1a98c3b694)"><path fill="#77a290" d="M 146.941406 329.566406 C 123.394531 326.339844 97.761719 320.707031 83.628906 302.632812 C 76.222656 293.144531 72.957031 281.292969 71.300781 269.597656 C 68.625 250.738281 69.6875 231.601562 70.710938 212.582031 C 73.351562 164.386719 75.988281 116.152344 81.738281 68.152344 C 82.957031 57.992188 85.515625 46.21875 95.28125 41.808594 C 99.140625 40.078125 103.589844 39.839844 107.882812 39.683594 C 139.933594 38.382812 171.984375 37.753906 204.078125 37.832031 C 223.609375 37.910156 243.726562 38.304688 261.722656 45.433594 C 302.515625 61.578125 301.175781 99.535156 302.121094 134.816406 C 303.304688 178.679688 304.523438 222.582031 305.707031 266.449219 C 306.257812 285.507812 306.375 305.902344 295.230469 321.808594 C 291.332031 327.441406 285.898438 332.363281 279.207031 334.726562 C 273.734375 336.695312 267.707031 336.8125 261.839844 336.890625 C 223.449219 337.246094 184.980469 334.804688 146.941406 329.566406 Z M 146.941406 329.566406 " fill-opacity="1" fill-rule="nonzero"/></g><g fill="#ff00ff" fill-opacity="1"><g transform="translate(102.809369, 167.480083)"><g><path d="M 9.976562 -0.777344 C 14.636719 0.648438 20.46875 0.257812 23.578125 -3.628906 C 26.945312 -7.773438 25.910156 -18.007812 29.664062 -21.117188 C 31.738281 -22.671875 49.875 -21.246094 50.523438 -20.726562 C 54.019531 -17.746094 54.667969 -9.457031 57.257812 -5.699219 C 60.886719 -0.386719 65.679688 -0.128906 70.730469 -4.144531 C 75.78125 -8.289062 75.265625 -12.566406 73.191406 -18.265625 L 58.035156 -60.886719 C 54.40625 -71.25 51.945312 -87.183594 38.34375 -86.921875 C 26.296875 -86.535156 20.339844 -79.28125 16.839844 -68.65625 C 12.695312 -56.09375 8.808594 -43.398438 5.699219 -30.570312 C 3.367188 -20.984375 -3.367188 -4.664062 9.976562 -0.777344 Z M 35.625 -39.511719 C 36.789062 -43.398438 38.085938 -47.285156 39.25 -51.167969 C 40.289062 -47.671875 41.453125 -44.304688 42.621094 -40.804688 C 40.289062 -40.417969 37.957031 -39.898438 35.625 -39.511719 Z M 35.625 -39.511719 "/></g></g></g><g fill="#ff00ff" fill-opacity="1"><g transform="translate(206.174919, 167.480083)"><g><path d="M 6.089844 -2.460938 C 18.394531 10.621094 24.09375 -32.773438 25.390625 -38.085938 C 30.703125 -29.40625 51.945312 14.898438 63.734375 -10.492188 C 71.121094 -26.167969 69.046875 -52.59375 66.585938 -68.65625 C 65.417969 -77.335938 56.222656 -80.964844 49.875 -74.359375 C 43.265625 -67.363281 45.988281 -53.628906 46.507812 -45.210938 C 41.324219 -53.242188 38.472656 -62.050781 33.550781 -69.953125 C 29.664062 -76.429688 21.246094 -81.871094 13.601562 -78.113281 C 1.425781 -72.027344 3.367188 -44.5625 2.71875 -33.035156 C 2.332031 -25 0.128906 -8.9375 6.089844 -2.460938 Z M 6.089844 -2.460938 "/></g></g></g><g fill="#00ffff" fill-opacity="1"><g transform="translate(97.951462, 167.480083)"><g><path d="M 9.976562 -0.777344 C 14.636719 0.648438 20.46875 0.257812 23.578125 -3.628906 C 26.945312 -7.773438 25.910156 -18.007812 29.664062 -21.117188 C 31.738281 -22.671875 49.875 -21.246094 50.523438 -20.726562 C 54.019531 -17.746094 54.667969 -9.457031 57.257812 -5.699219 C 60.886719 -0.386719 65.679688 -0.128906 70.730469 -4.144531 C 75.78125 -8.289062 75.265625 -12.566406 73.191406 -18.265625 L 58.035156 -60.886719 C 54.40625 -71.25 51.945312 -87.183594 38.34375 -86.921875 C 26.296875 -86.535156 20.339844 -79.28125 16.839844 -68.65625 C 12.695312 -56.09375 8.808594 -43.398438 5.699219 -30.570312 C 3.367188 -20.984375 -3.367188 -4.664062 9.976562 -0.777344 Z M 35.625 -39.511719 C 36.789062 -43.398438 38.085938 -47.285156 39.25 -51.167969 C 40.289062 -47.671875 41.453125 -44.304688 42.621094 -40.804688 C 40.289062 -40.417969 37.957031 -39.898438 35.625 -39.511719 Z M 35.625 -39.511719 "/></g></g></g><g fill="#00ffff" fill-opacity="1"><g transform="translate(201.317012, 167.480083)"><g><path d="M 6.089844 -2.460938 C 18.394531 10.621094 24.09375 -32.773438 25.390625 -38.085938 C 30.703125 -29.40625 51.945312 14.898438 63.734375 -10.492188 C 71.121094 -26.167969 69.046875 -52.59375 66.585938 -68.65625 C 65.417969 -77.335938 56.222656 -80.964844 49.875 -74.359375 C 43.265625 -67.363281 45.988281 -53.628906 46.507812 -45.210938 C 41.324219 -53.242188 38.472656 -62.050781 33.550781 -69.953125 C 29.664062 -76.429688 21.246094 -81.871094 13.601562 -78.113281 C 1.425781 -72.027344 3.367188 -44.5625 2.71875 -33.035156 C 2.332031 -25 0.128906 -8.9375 6.089844 -2.460938 Z M 6.089844 -2.460938 "/></g></g></g><g fill="#284b70" fill-opacity="1"><g transform="translate(100.380416, 167.480083)"><g><path d="M 9.976562 -0.777344 C 14.636719 0.648438 20.46875 0.257812 23.578125 -3.628906 C 26.945312 -7.773438 25.910156 -18.007812 29.664062 -21.117188 C 31.738281 -22.671875 49.875 -21.246094 50.523438 -20.726562 C 54.019531 -17.746094 54.667969 -9.457031 57.257812 -5.699219 C 60.886719 -0.386719 65.679688 -0.128906 70.730469 -4.144531 C 75.78125 -8.289062 75.265625 -12.566406 73.191406 -18.265625 L 58.035156 -60.886719 C 54.40625 -71.25 51.945312 -87.183594 38.34375 -86.921875 C 26.296875 -86.535156 20.339844 -79.28125 16.839844 -68.65625 C 12.695312 -56.09375 8.808594 -43.398438 5.699219 -30.570312 C 3.367188 -20.984375 -3.367188 -4.664062 9.976562 -0.777344 Z M 35.625 -39.511719 C 36.789062 -43.398438 38.085938 -47.285156 39.25 -51.167969 C 40.289062 -47.671875 41.453125 -44.304688 42.621094 -40.804688 C 40.289062 -40.417969 37.957031 -39.898438 35.625 -39.511719 Z M 35.625 -39.511719 "/></g></g></g><g fill="#284b70" fill-opacity="1"><g transform="translate(203.745965, 167.480083)"><g><path d="M 6.089844 -2.460938 C 18.394531 10.621094 24.09375 -32.773438 25.390625 -38.085938 C 30.703125 -29.40625 51.945312 14.898438 63.734375 -10.492188 C 71.121094 -26.167969 69.046875 -52.59375 66.585938 -68.65625 C 65.417969 -77.335938 56.222656 -80.964844 49.875 -74.359375 C 43.265625 -67.363281 45.988281 -53.628906 46.507812 -45.210938 C 41.324219 -53.242188 38.472656 -62.050781 33.550781 -69.953125 C 29.664062 -76.429688 21.246094 -81.871094 13.601562 -78.113281 C 1.425781 -72.027344 3.367188 -44.5625 2.71875 -33.035156 C 2.332031 -25 0.128906 -8.9375 6.089844 -2.460938 Z M 6.089844 -2.460938 "/></g></g></g><g fill="#ff00ff" fill-opacity="1"><g transform="translate(102.809369, 274.729598)"><g><path d="M 6.089844 -2.460938 C 18.394531 10.621094 24.09375 -32.773438 25.390625 -38.085938 C 30.703125 -29.40625 51.945312 14.898438 63.734375 -10.492188 C 71.121094 -26.167969 69.046875 -52.59375 66.585938 -68.65625 C 65.417969 -77.335938 56.222656 -80.964844 49.875 -74.359375 C 43.265625 -67.363281 45.988281 -53.628906 46.507812 -45.210938 C 41.324219 -53.242188 38.472656 -62.050781 33.550781 -69.953125 C 29.664062 -76.429688 21.246094 -81.871094 13.601562 -78.113281 C 1.425781 -72.027344 3.367188 -44.5625 2.71875 -33.035156 C 2.332031 -25 0.128906 -8.9375 6.089844 -2.460938 Z M 6.089844 -2.460938 "/></g></g></g><g fill="#ff00ff" fill-opacity="1"><g transform="translate(200.346238, 274.729598)"><g><path d="M 9.976562 -0.777344 C 14.636719 0.648438 20.46875 0.257812 23.578125 -3.628906 C 26.945312 -7.773438 25.910156 -18.007812 29.664062 -21.117188 C 31.738281 -22.671875 49.875 -21.246094 50.523438 -20.726562 C 54.019531 -17.746094 54.667969 -9.457031 57.257812 -5.699219 C 60.886719 -0.386719 65.679688 -0.128906 70.730469 -4.144531 C 75.78125 -8.289062 75.265625 -12.566406 73.191406 -18.265625 L 58.035156 -60.886719 C 54.40625 -71.25 51.945312 -87.183594 38.34375 -86.921875 C 26.296875 -86.535156 20.339844 -79.28125 16.839844 -68.65625 C 12.695312 -56.09375 8.808594 -43.398438 5.699219 -30.570312 C 3.367188 -20.984375 -3.367188 -4.664062 9.976562 -0.777344 Z M 35.625 -39.511719 C 36.789062 -43.398438 38.085938 -47.285156 39.25 -51.167969 C 40.289062 -47.671875 41.453125 -44.304688 42.621094 -40.804688 C 40.289062 -40.417969 37.957031 -39.898438 35.625 -39.511719 Z M 35.625 -39.511719 "/></g></g></g><g fill="#00ffff" fill-opacity="1"><g transform="translate(97.951462, 274.729598)"><g><path d="M 6.089844 -2.460938 C 18.394531 10.621094 24.09375 -32.773438 25.390625 -38.085938 C 30.703125 -29.40625 51.945312 14.898438 63.734375 -10.492188 C 71.121094 -26.167969 69.046875 -52.59375 66.585938 -68.65625 C 65.417969 -77.335938 56.222656 -80.964844 49.875 -74.359375 C 43.265625 -67.363281 45.988281 -53.628906 46.507812 -45.210938 C 41.324219 -53.242188 38.472656 -62.050781 33.550781 -69.953125 C 29.664062 -76.429688 21.246094 -81.871094 13.601562 -78.113281 C 1.425781 -72.027344 3.367188 -44.5625 2.71875 -33.035156 C 2.332031 -25 0.128906 -8.9375 6.089844 -2.460938 Z M 6.089844 -2.460938 "/></g></g></g><g fill="#00ffff" fill-opacity="1"><g transform="translate(195.488331, 274.729598)"><g><path d="M 9.976562 -0.777344 C 14.636719 0.648438 20.46875 0.257812 23.578125 -3.628906 C 26.945312 -7.773438 25.910156 -18.007812 29.664062 -21.117188 C 31.738281 -22.671875 49.875 -21.246094 50.523438 -20.726562 C 54.019531 -17.746094 54.667969 -9.457031 57.257812 -5.699219 C 60.886719 -0.386719 65.679688 -0.128906 70.730469 -4.144531 C 75.78125 -8.289062 75.265625 -12.566406 73.191406 -18.265625 L 58.035156 -60.886719 C 54.40625 -71.25 51.945312 -87.183594 38.34375 -86.921875 C 26.296875 -86.535156 20.339844 -79.28125 16.839844 -68.65625 C 12.695312 -56.09375 8.808594 -43.398438 5.699219 -30.570312 C 3.367188 -20.984375 -3.367188 -4.664062 9.976562 -0.777344 Z M 35.625 -39.511719 C 36.789062 -43.398438 38.085938 -47.285156 39.25 -51.167969 C 40.289062 -47.671875 41.453125 -44.304688 42.621094 -40.804688 C 40.289062 -40.417969 37.957031 -39.898438 35.625 -39.511719 Z M 35.625 -39.511719 "/></g></g></g><g fill="#284b70" fill-opacity="1"><g transform="translate(100.380416, 274.729598)"><g><path d="M 6.089844 -2.460938 C 18.394531 10.621094 24.09375 -32.773438 25.390625 -38.085938 C 30.703125 -29.40625 51.945312 14.898438 63.734375 -10.492188 C 71.121094 -26.167969 69.046875 -52.59375 66.585938 -68.65625 C 65.417969 -77.335938 56.222656 -80.964844 49.875 -74.359375 C 43.265625 -67.363281 45.988281 -53.628906 46.507812 -45.210938 C 41.324219 -53.242188 38.472656 -62.050781 33.550781 -69.953125 C 29.664062 -76.429688 21.246094 -81.871094 13.601562 -78.113281 C 1.425781 -72.027344 3.367188 -44.5625 2.71875 -33.035156 C 2.332031 -25 0.128906 -8.9375 6.089844 -2.460938 Z M 6.089844 -2.460938 "/></g></g></g><g fill="#284b70" fill-opacity="1"><g transform="translate(197.917285, 274.729598)"><g><path d="M 9.976562 -0.777344 C 14.636719 0.648438 20.46875 0.257812 23.578125 -3.628906 C 26.945312 -7.773438 25.910156 -18.007812 29.664062 -21.117188 C 31.738281 -22.671875 49.875 -21.246094 50.523438 -20.726562 C 54.019531 -17.746094 54.667969 -9.457031 57.257812 -5.699219 C 60.886719 -0.386719 65.679688 -0.128906 70.730469 -4.144531 C 75.78125 -8.289062 75.265625 -12.566406 73.191406 -18.265625 L 58.035156 -60.886719 C 54.40625 -71.25 51.945312 -87.183594 38.34375 -86.921875 C 26.296875 -86.535156 20.339844 -79.28125 16.839844 -68.65625 C 12.695312 -56.09375 8.808594 -43.398438 5.699219 -30.570312 C 3.367188 -20.984375 -3.367188 -4.664062 9.976562 -0.777344 Z M 35.625 -39.511719 C 36.789062 -43.398438 38.085938 -47.285156 39.25 -51.167969 C 40.289062 -47.671875 41.453125 -44.304688 42.621094 -40.804688 C 40.289062 -40.417969 37.957031 -39.898438 35.625 -39.511719 Z M 35.625 -39.511719 "/></g></g></g></svg>